<?xml version="1.0" encoding="UTF-8"?>
<svg version="1.1" xmlns="http://www.w3.org/2000/svg" width="512" height="512">
<path d="M0 0 C2.06198919 1.91667071 4.09628767 3.86069155 6.125 5.8125 C7.06545166 6.71210449 7.06545166 6.71210449 8.02490234 7.62988281 C17.21123191 16.46280653 25.64829641 25.48604603 33.125 35.8125 C33.56618164 36.41465332 34.00736328 37.01680664 34.46191406 37.63720703 C57.54140414 69.35283987 72.44621768 105.18326072 79.125 143.8125 C79.24955566 144.52744629 79.37411133 145.24239258 79.50244141 145.97900391 C80.16841217 149.91267125 80.69596519 153.84642242 81.125 157.8125 C81.23585938 158.82699219 81.34671875 159.84148437 81.4609375 160.88671875 C87.27740286 226.04685093 67.08642179 290.73131731 25.54296875 341.13330078 C21.26131674 346.20375576 16.72681921 351.03334672 12.125 355.8125 C11.62323242 356.33618164 11.12146484 356.85986328 10.60449219 357.39941406 C-4.79800386 373.39621864 -22.76293901 386.87820321 -42.09228516 397.80371094 C-43.82408464 398.78368841 -45.54314787 399.78606727 -47.26171875 400.7890625 C-101.90510923 431.93858458 -170.41626516 437.45207039 -230.49609375 421.05859375 C-256.95033503 413.45510874 -282.46286906 401.90408754 -304.875 385.8125 C-305.84308594 385.11769531 -306.81117188 384.42289062 -307.80859375 383.70703125 C-327.13024481 369.51101974 -345.59932255 352.93450472 -359.69677734 333.43505859 C-360.88516421 331.79850262 -362.10517469 330.18988712 -363.33203125 328.58203125 C-389.17157029 294.20221937 -403.82917141 252.24972773 -408.875 209.8125 C-409.00648438 208.75289063 -409.13796875 207.69328125 -409.2734375 206.6015625 C-415.8223655 140.58128832 -393.62779982 75.70085773 -352.0625 24.8125 C-340.67804888 11.34943889 -327.962498 -1.58656619 -313.63525391 -11.91455078 C-311.74270516 -13.28317064 -309.87821194 -14.68593433 -308.01171875 -16.08984375 C-226.5240788 -76.45178133 -109.97009472 -77.19978354 0 0 Z M-255.875 -20.1875 C-257.09364746 -19.64101807 -257.09364746 -19.64101807 -258.33691406 -19.08349609 C-276.24511515 -10.90403264 -293.11619334 -0.25389713 -307.875 12.8125 C-308.64972656 13.47894531 -309.42445313 14.14539063 -310.22265625 14.83203125 C-322.65425582 25.72736811 -334.21948783 37.37420059 -343.875 50.8125 C-344.35001953 51.47024414 -344.82503906 52.12798828 -345.31445312 52.80566406 C-379.50677838 100.71546367 -394.23234244 160.55085715 -385.3125 218.875 C-381.905234 238.51854737 -376.03722198 257.63584538 -367.875 275.8125 C-367.32851807 277.03114746 -367.32851807 277.03114746 -366.77099609 278.27441406 C-358.59153264 296.18261515 -347.94139713 313.05369334 -334.875 327.8125 C-333.87533203 328.97458984 -333.87533203 328.97458984 -332.85546875 330.16015625 C-321.96013189 342.59175582 -310.31329941 354.15698783 -296.875 363.8125 C-296.21725586 364.28751953 -295.55951172 364.76253906 -294.88183594 365.25195312 C-245.91095169 400.20155457 -185.80193307 414.09098262 -126.45629883 404.59814453 C-89.81137792 398.26404757 -54.98474178 383.00626465 -25.875 359.8125 C-24.39193359 358.636875 -24.39193359 358.636875 -22.87890625 357.4375 C-7.22137648 344.74801168 6.49222932 330.25019852 18.125 313.8125 C18.56215332 313.20937988 18.99930664 312.60625977 19.44970703 311.98486328 C52.14629319 266.72134988 65.88527668 207.5774548 58 152.375 C57.4662165 149.16501863 56.81697936 145.99178129 56.125 142.8125 C55.92100586 141.83361816 55.71701172 140.85473633 55.50683594 139.84619141 C46.29303566 96.30528516 25.74422369 58.91112981 -4.875 26.8125 C-5.74511719 25.88953125 -6.61523438 24.9665625 -7.51171875 24.015625 C-14.43971955 16.85500519 -21.9104666 10.77006707 -29.875 4.8125 C-30.43558105 4.38582031 -30.99616211 3.95914063 -31.57373047 3.51953125 C-41.12983616 -3.73473876 -51.23272993 -9.66722569 -61.875 -15.1875 C-62.62378418 -15.57824707 -63.37256836 -15.96899414 -64.14404297 -16.37158203 C-123.5651824 -46.98792263 -195.20409441 -47.43175421 -255.875 -20.1875 Z " fill="#000000" transform="translate(419.875,72.1875)"/>
<path d="M0 0 C1.06152786 -0.00960754 2.12305573 -0.01921509 3.2167511 -0.02911377 C4.363629 -0.03336365 5.5105069 -0.03761353 6.69213867 -0.04199219 C8.46230598 -0.0505423 8.46230598 -0.0505423 10.26823425 -0.05926514 C12.76735537 -0.06871755 15.26648897 -0.07525007 17.765625 -0.07910156 C21.58445044 -0.08880201 25.40273658 -0.11982195 29.22143555 -0.15136719 C31.64916673 -0.15789779 34.07690175 -0.16314804 36.50463867 -0.16699219 C37.64544388 -0.17933899 38.78624908 -0.19168579 39.96162415 -0.20440674 C45.61833706 -0.18855557 49.97249978 -0.17005314 54.79760742 3.16113281 C57.20183018 6.56885725 57.26580554 9.90465464 57.19213867 13.96972656 C56.55768199 17.49378795 54.55733873 19.05848039 51.79760742 21.16113281 C48.58309473 22.76838916 45.36148207 22.21861466 41.79760742 22.16113281 C41.69448242 23.35738281 41.59135742 24.55363281 41.48510742 25.78613281 C40.65100878 32.30726765 39.17510654 38.73280361 37.79760742 45.16113281 C84.65760742 45.16113281 131.51760742 45.16113281 179.79760742 45.16113281 C177.81760742 35.75613281 177.81760742 35.75613281 175.79760742 26.16113281 C175.79760742 24.84113281 175.79760742 23.52113281 175.79760742 22.16113281 C173.97229492 22.25394531 173.97229492 22.25394531 172.11010742 22.34863281 C168.20019046 22.34863281 165.92491431 21.6445824 162.79760742 19.16113281 C160.72436604 16.05127074 160.52368556 15.27004894 160.54760742 11.72363281 C160.53987305 10.58087891 160.53987305 10.58087891 160.53198242 9.41503906 C160.84399687 6.76750467 161.24025457 5.34053177 162.79760742 3.16113281 C168.5031156 -0.75716559 174.36858606 -0.27290847 181.02026367 -0.23730469 C182.19850204 -0.24017487 183.37674042 -0.24304504 184.59068298 -0.2460022 C187.07608522 -0.24803967 189.56150362 -0.24253204 192.046875 -0.22998047 C195.8502179 -0.21390898 199.6525004 -0.22984832 203.45581055 -0.24902344 C205.8731306 -0.24704123 208.29044999 -0.24319803 210.70776367 -0.23730469 C211.844319 -0.24337738 212.98087433 -0.24945007 214.15187073 -0.25570679 C215.74393593 -0.24152206 215.74393593 -0.24152206 217.36816406 -0.22705078 C218.29826797 -0.224664 219.22837189 -0.22227722 220.18666077 -0.21981812 C223.41771983 0.25161049 225.20213621 1.18455454 227.79760742 3.16113281 C230.21108895 6.4726725 231.39714506 9.65205652 232.41992188 13.59619141 C232.70064041 14.6627597 232.98135895 15.729328 233.27058411 16.82821655 C233.56438461 17.97706329 233.85818512 19.12591003 234.16088867 20.30957031 C234.47535446 21.51312164 234.78982025 22.71667297 235.11381531 23.95669556 C235.95065724 27.16533388 236.78064495 30.37558606 237.6072998 33.58685303 C238.42752922 36.7667106 239.25655669 39.94427055 240.0847168 43.12207031 C241.37798149 48.08750095 242.66365069 53.05481171 243.94458008 58.0234375 C245.14405019 62.66628921 246.36715058 67.30169194 247.61547852 71.93164062 C248.03750801 73.50856186 248.03750801 73.50856186 248.46806335 75.11734009 C248.99111815 77.06769352 249.51986022 79.01653469 250.05549622 80.96347046 C252.98813156 91.95015941 252.98813156 91.95015941 250.04760742 97.41113281 C247.45501367 100.5798585 245.66485167 101.94844355 241.57646954 102.41413248 C240.35333265 102.41624575 240.35333265 102.41624575 239.10548592 102.41840172 C238.16070511 102.42485061 237.2159243 102.4312995 236.24251378 102.43794382 C235.20770182 102.43484661 234.17288986 102.43174941 233.10671997 102.42855835 C232.00497653 102.43308946 230.90323309 102.43762058 229.76810348 102.44228899 C226.06321493 102.45498523 222.3584724 102.45330925 218.65356445 102.45166016 C216.00263926 102.45764212 213.35172564 102.46438995 210.70080566 102.47201538 C204.23963059 102.48863178 197.77849201 102.49412521 191.31729735 102.49524014 C186.0657222 102.49619028 180.81415909 102.50029889 175.56258774 102.50664139 C160.67547553 102.52425532 145.78839216 102.53347999 130.90126945 102.53198044 C129.69729317 102.53186057 129.69729317 102.53186057 128.46899414 102.53173828 C127.66536402 102.53165652 126.8617339 102.53157476 126.03375135 102.53149052 C113.00795855 102.53067751 99.98228136 102.54981851 86.956522 102.57801501 C73.58379139 102.60673434 60.21111718 102.62055585 46.83835495 102.61882746 C39.32972894 102.61816324 31.82122413 102.62366942 24.31262589 102.64518356 C17.91993652 102.66338286 11.5274233 102.66775309 5.13471927 102.65416472 C1.87312657 102.64762864 -1.38805741 102.64970851 -4.6496315 102.66487122 C-8.18590441 102.68024823 -11.7212849 102.67106441 -15.25753784 102.65560913 C-16.28788835 102.66589626 -17.31823887 102.67618338 -18.37981212 102.68678224 C-24.29935811 102.6294709 -27.68665151 102.09642678 -32.20239258 98.16113281 C-35.30802323 93.68659362 -34.0982296 89.26385031 -33.20239258 84.16113281 C-31.90694532 78.25521233 -30.41897823 72.40500957 -28.90551758 66.55175781 C-28.47034025 64.85411101 -28.03534586 63.15641731 -27.6005249 61.4586792 C-26.69127894 57.91717091 -25.77583681 54.37732955 -24.85668945 50.83837891 C-23.68287056 46.31447643 -22.53091425 41.78531316 -21.3842659 37.25445938 C-20.49445992 33.75307442 -19.5900157 30.25559256 -18.68148041 26.75902557 C-18.25047972 25.09069433 -17.82470686 23.42100302 -17.40439606 21.74994659 C-16.81492218 19.41300685 -16.20508669 17.08228607 -15.59008789 14.75195312 C-15.42262054 14.06922836 -15.2551532 13.3865036 -15.08261108 12.68309021 C-13.72923181 7.68373116 -11.76437477 4.79300649 -8.20239258 1.16113281 C-5.19204393 0.15768326 -3.14784034 0.02299885 0 0 Z M5.79760742 22.16113281 C4.95820735 25.24293023 4.1258882 28.32634656 3.29760742 31.41113281 C3.05913086 32.28382813 2.8206543 33.15652344 2.57495117 34.05566406 C2.34936523 34.9 2.1237793 35.74433594 1.89135742 36.61425781 C1.68188477 37.38930664 1.47241211 38.16435547 1.2565918 38.96289062 C0.6613485 41.43945138 0.6613485 41.43945138 0.79760742 45.16113281 C5.41760742 45.16113281 10.03760742 45.16113281 14.79760742 45.16113281 C16.52277711 40.01747975 16.52277711 40.01747975 17.64916992 34.85644531 C17.77807617 34.10878906 17.90698242 33.36113281 18.03979492 32.59082031 C18.16612305 31.83027344 18.29245117 31.06972656 18.42260742 30.28613281 C18.55666992 29.50238281 18.69073242 28.71863281 18.82885742 27.91113281 C19.15597165 25.99517807 19.47737627 24.07825 19.79760742 22.16113281 C15.17760742 22.16113281 10.55760742 22.16113281 5.79760742 22.16113281 Z M197.79760742 22.16113281 C198.43869209 25.80786093 199.08522972 29.45347106 199.73510742 33.09863281 C199.91750977 34.13955078 200.09991211 35.18046875 200.2878418 36.25292969 C200.46508789 37.24228516 200.64233398 38.23164063 200.82495117 39.25097656 C200.98729248 40.16741943 201.14963379 41.0838623 201.31689453 42.02807617 C201.59173869 44.13338055 201.59173869 44.13338055 202.79760742 45.16113281 C205.15074297 45.23385023 207.50594411 45.24484149 209.86010742 45.22363281 C211.15045898 45.21460938 212.44081055 45.20558594 213.77026367 45.19628906 C214.76928711 45.1846875 215.76831055 45.17308594 216.79760742 45.16113281 C216.15213042 37.25403951 213.92763603 29.76979314 211.79760742 22.16113281 C207.17760742 22.16113281 202.55760742 22.16113281 197.79760742 22.16113281 Z M-5.20239258 67.16113281 C-5.67676758 68.37800781 -6.15114258 69.59488281 -6.63989258 70.84863281 C-6.90672852 71.533125 -7.17356445 72.21761719 -7.44848633 72.92285156 C-8.39646408 75.58051588 -8.39646408 75.58051588 -9.20239258 80.16113281 C-3.59239258 80.16113281 2.01760742 80.16113281 7.79760742 80.16113281 C10.02121422 74.08659721 10.02121422 74.08659721 10.79760742 67.16113281 C5.51760742 67.16113281 0.23760742 67.16113281 -5.20239258 67.16113281 Z M32.79760742 67.16113281 C30.65298712 75.27533344 30.65298712 75.27533344 30.79760742 80.16113281 C42.67760742 80.16113281 54.55760742 80.16113281 66.79760742 80.16113281 C69.07232855 73.41296051 69.07232855 73.41296051 68.79760742 67.16113281 C56.91760742 67.16113281 45.03760742 67.16113281 32.79760742 67.16113281 Z M91.79760742 67.16113281 C91.46760742 68.19238281 91.13760742 69.22363281 90.79760742 70.28613281 C90.61198242 70.86621094 90.42635742 71.44628906 90.23510742 72.04394531 C89.59524081 74.78012299 89.59524081 74.78012299 89.79760742 80.16113281 C102.33760742 80.16113281 114.87760742 80.16113281 127.79760742 80.16113281 C128.16564823 73.02663692 128.16564823 73.02663692 125.79760742 67.16113281 C123.27666666 67.07265538 120.78329849 67.0458598 118.26245117 67.06347656 C117.50920059 67.06489151 116.75595001 67.06630646 115.97987366 67.06776428 C113.56491182 67.07337905 111.15004141 67.08593398 108.73510742 67.09863281 C107.10164522 67.10364591 105.46818156 67.10820915 103.8347168 67.11230469 C99.82231157 67.12335328 95.80997502 67.14062775 91.79760742 67.16113281 Z M148.79760742 67.16113281 C148.42956661 74.29562871 148.42956661 74.29562871 150.79760742 80.16113281 C153.46386773 80.24968442 156.10407857 80.27637954 158.77026367 80.25878906 C159.56790634 80.25737411 160.36554901 80.25595917 161.18736267 80.25450134 C163.74498178 80.24888598 166.3025146 80.23633093 168.86010742 80.22363281 C170.58992387 80.21861979 172.31974168 80.21405654 174.04956055 80.20996094 C178.29894295 80.19891156 182.54826054 80.18163668 186.79760742 80.16113281 C186.65529934 78.74410768 186.50859996 77.32752321 186.36010742 75.91113281 C186.27889648 75.12222656 186.19768555 74.33332031 186.11401367 73.52050781 C185.80249545 70.86494919 185.80249545 70.86494919 184.79760742 67.16113281 C172.91760742 67.16113281 161.03760742 67.16113281 148.79760742 67.16113281 Z M206.79760742 67.16113281 C207.1051992 69.14106823 207.41881422 71.1200688 207.73510742 73.09863281 C207.90913086 74.20078125 208.0831543 75.30292969 208.26245117 76.43847656 C208.51605878 79.0654021 208.51605878 79.0654021 209.79760742 80.16113281 C212.66028309 80.23438449 215.49832642 80.25351486 218.36010742 80.22363281 C219.56957031 80.21686523 219.56957031 80.21686523 220.8034668 80.20996094 C222.80154498 80.19813799 224.79958525 80.18020195 226.79760742 80.16113281 C226.32271845 78.18093539 225.84257884 76.20199646 225.36010742 74.22363281 C225.09327148 73.12148438 224.82643555 72.01933594 224.55151367 70.88378906 C224.06765017 68.26692028 224.06765017 68.26692028 222.79760742 67.16113281 C220.10105889 67.0879366 217.43069284 67.06870744 214.73510742 67.09863281 C213.5971875 67.10540039 213.5971875 67.10540039 212.4362793 67.11230469 C210.55668871 67.12412601 208.67713843 67.14206204 206.79760742 67.16113281 Z " fill="#000000" transform="translate(147.202392578125,296.8388671875)"/>
<path d="M0 0 C16.51870573 14.00652802 27.99222683 30.94618066 31.42382812 52.73974609 C31.71583943 56.57765875 31.75795938 60.39185435 31.73632812 64.23974609 C31.73068848 65.29709961 31.72504883 66.35445313 31.71923828 67.44384766 C30.97115986 116.25411284 1.07957074 159.68870522 -31.13476562 194.10693359 C-33.87398463 197.06090736 -36.47790787 200.10911403 -39.04101562 203.21630859 C-42.43840764 206.58776632 -45.6712087 206.99094207 -50.38085938 207.20068359 C-56.06526001 206.00716175 -59.97306501 201.52608862 -63.70117188 197.36474609 C-64.16998779 196.84146729 -64.63880371 196.31818848 -65.12182617 195.77905273 C-66.61413139 194.10580211 -68.09501074 192.42286168 -69.57617188 190.73974609 C-70.0536084 190.20559082 -70.53104492 189.67143555 -71.02294922 189.12109375 C-104.59199184 151.54516642 -130.3639217 107.35308658 -128.74658203 55.66992188 C-127.77692747 38.99686446 -119.75892598 22.92745133 -108.57617188 10.73974609 C-107.91230469 9.98435547 -107.2484375 9.22896484 -106.56445312 8.45068359 C-79.55504705 -20.60564604 -31.30797143 -25.03279872 0 0 Z M-93.57617188 26.73974609 C-99.86513054 34.99613667 -104.77294698 44.45400408 -106.57617188 54.73974609 C-106.79660156 55.95984375 -106.79660156 55.95984375 -107.02148438 57.20458984 C-111.74102335 93.00279505 -90.1250845 128.50784864 -69.57617188 155.73974609 C-63.1911645 163.96227228 -56.56098917 172.01834807 -49.57617188 179.73974609 C-45.33878865 178.16072121 -42.89234194 174.98576295 -40.07617188 171.61474609 C-39.29222046 170.68529175 -39.29222046 170.68529175 -38.49243164 169.73706055 C-28.19680355 157.40110742 -19.0280134 144.39709287 -10.57617188 130.73974609 C-10.0115625 129.8394165 -10.0115625 129.8394165 -9.43554688 128.92089844 C3.91095254 107.4806659 13.9223467 78.40652444 9.24414062 52.94287109 C4.68295417 35.13252397 -5.45656126 22.20885944 -20.92773438 12.75927734 C-45.65630059 -1.53344037 -75.13880052 6.41206474 -93.57617188 26.73974609 Z " fill="#000000" transform="translate(304.576171875,129.26025390625)"/>
<path d="M0 0 C11.01635083 7.00301948 18.2484731 15.86555755 21.3359375 28.49609375 C22.65888733 41.99018201 20.47715357 53.37833002 11.90625 64.2421875 C4.44754061 72.30740094 -4.89676408 76.86558985 -15.8046875 78.0625 C-28.97398274 78.5121125 -39.59915691 74.58246628 -49.3515625 65.68359375 C-57.30412499 56.50756011 -60.46994578 45.68469843 -60.3515625 33.68359375 C-59.41157785 22.08485455 -53.73489127 12.55270347 -45.3515625 4.68359375 C-33.01785599 -5.09074678 -14.09463107 -6.96835402 0 0 Z M-30.18359375 22.26953125 C-34.64544026 27.24161325 -36.87951008 31.71873102 -36.66015625 38.5703125 C-35.70022968 45.14398683 -32.04053415 49.46343207 -27.03515625 53.5546875 C-22.63989673 56.50185687 -17.42324434 56.35230439 -12.3515625 55.68359375 C-6.13883967 53.13288472 -1.92600869 48.98243338 0.9609375 42.93359375 C2.23617968 36.90517618 1.56627878 31.76385206 -1.4765625 26.37109375 C-5.12431557 21.12418246 -9.11645127 19.22434647 -15.2265625 17.74609375 C-20.75338776 17.32836858 -25.94926605 18.60399383 -30.18359375 22.26953125 Z " fill="#000000" transform="translate(274.3515625,151.31640625)"/>
</svg>
